/* XPM */
static char *ccdd12bd6c2b4abd85b25edff6374115QbRq9ZOLUxbzZKdb[] = {
/* columns rows colors chars-per-pixel */
"64 64 2 1 ",
"  c white",
". c black",
/* pixels */
"                                                                ",
"                             ......                             ",
"                        ................                        ",
"                     ......................                     ",
"                   ..........................                   ",
"                 ..............................                 ",
"               ................  ................               ",
"              ...........              ...........              ",
"            ..........                    ..........            ",
"           .........                        .........           ",
"          ........                            ........          ",
"         ........                              ........         ",
"        ........                                ........        ",
"        ......                 ...                ......        ",
"       ......                 ....                 ......       ",
"      .......               ........               .......      ",
"      ......              ............              ......      ",
"     ......              ..............              ......     ",
"     .....              ................              .....     ",
"    ......             ..................             ......    ",
"    .....              ......  ... ......              .....    ",
"   ......              .....   ...  .....              ......   ",
"   .....               .....   ...  .....               .....   ",
"   .....              ......   ...                      .....   ",
"  ......              ......   ...                      ......  ",
"  .....                .....   ...                       .....  ",
"  .....                ...... ....                       .....  ",
"  .....                ...........                       .....  ",
"  .....                 ...........                      .....  ",
" ......                 .............                    ...... ",
" ......                  ..............                  ...... ",
" .....                     .............                  ..... ",
" .....                       ............                 ..... ",
" ......                       ............               ...... ",
" ......                        ... .......               ...... ",
"  .....                        ...  ......               .....  ",
"  .....                        ...   .....               .....  ",
"  .....                   .    ...   .....               .....  ",
"  .....               .....    ...   .....               .....  ",
"  ......              ......   ...   .....              ......  ",
"   .....              .......  ...  ......              .....   ",
"   .....               ........... .......              .....   ",
"   ......              ..................              ......   ",
"    .....               ................               .....    ",
"    ......               ..............               ......    ",
"     .....                ............                .....     ",
"     ......                 ........                 ......     ",
"      ......                  ....                  ......      ",
"      .......                  ...                 .......      ",
"       ......                  ...                 ......       ",
"        ......                 ...                ......        ",
"        ........                                ........        ",
"         ........                              ........         ",
"          ........                            ........          ",
"           .........                        .........           ",
"            ..........                    ..........            ",
"              ...........              ...........              ",
"               ................  ................               ",
"                 ..............................                 ",
"                   ..........................                   ",
"                     ......................                     ",
"                        ................                        ",
"                             ......                             ",
"                                                                "
};
