/* XPM */
static char *b50582fb22814ffce0d04c0a45f29a4cVNfbcsGipP9a5RBo[] = {
/* columns rows colors chars-per-pixel */
"64 64 2 1 ",
"  c white",
". c black",
/* pixels */
"                      ...                                       ",
"                      ....                                      ",
"                      ......                                    ",
"                       .. ...                                   ",
"                       ..   ...                                 ",
"                       ..    ...                                ",
"                       ..     ...                               ",
"                        ..      ..                              ",
"                        ..       ..                             ",
"                        ..        ..                            ",
"                        ..         ..                           ",
"                        ..          ..                          ",
"                        ..          ...                         ",
"                        ..           ..                         ",
"                         .            ..                        ",
"                                      ..                        ",
"                                       ..   ..                  ",
"                         .             ..   ...                 ",
"                        ..             ..   ....                ",
"                        ..              ..  ....                ",
"                        ..              .. ..  ..               ",
"                        ..              .. ..  ..               ",
"             ...       ..                ....   ..              ",
"             ...       ..                 .     ..              ",
"             ...       ..                       ..              ",
"            .....     ..                        ..              ",
"            .. ........    ......                .              ",
"            ..   .....  .............            ..             ",
"            ..        .....       .....          .              ",
"           ..       ....             ...         .              ",
"           ..      ...                ....      ..              ",
"           ..     ...                   ...     ..              ",
"           ..    ...                     ...    ..              ",
"          ..    ...                       ..    ..   .          ",
"          ..    ..                         ..  ..   ...         ",
"          ..   ......                   .....  ..  ....         ",
"          ..   .. ....                 .... .. .. ....          ",
"          ..   .. .....               ..... .. .......          ",
"          ..   .. .. ...             ... .. .. .... ..          ",
"          .    .. ..  ....         ....  .. ..      ..          ",
"         ..    .. ..    .....   .....    .. ..      ..          ",
"         ..    .. ..      .... ....      .. ..      ..          ",
"         ..    ..  ..      ... ...      ..  ..      ..          ",
"         ..    ..  ..    ....   ....   ...  ..      ..          ",
"         ..     .   .......       .......  ...      ..          ",
"          ..         ....           ....   ..       ..          ",
"          ..                               ..      ..           ",
"          ..      .                       ..       ..           ",
"          ..      ..                     ...       ..           ",
"           ..     ...                   ...        ..           ",
"           ..      ...                 ...        ..            ",
"           ...      ..    ..     .     ..         ..            ",
"            ..      ..    ..     ..    ..        ..             ",
"            ...     ..    ..     ..    ..       ...             ",
"             ..     ..    ..     ..    ..       ..              ",
"              ..    ..    ..     ..    ..      ..               ",
"               ..   ..    ..     ..    ..     ...               ",
"                ..   ....................    ...                ",
"                 ...  ..................    ...                 ",
"                  ...                      ..                   ",
"                   ....                 ..                      ",
"                     .....           .....                      ",
"                       .................                        ",
"                          ...........                           "
};
