/* XPM */
static char *ca1ed68f8fce4177b93feaa38cedbc2fLWJvFylPe9nWpZGt[] = {
/* columns rows colors chars-per-pixel */
"64 64 175 2 ",
"   c #010101",
".  c #0B0201",
"X  c #0F0900",
"o  c #060909",
"O  c #0A0C0C",
"+  c #050709",
"@  c #130303",
"#  c #1A0606",
"$  c #130C00",
"%  c #1E0808",
"&  c #1C1301",
"*  c #0D0F11",
"=  c #0E1011",
"-  c #121414",
";  c #171819",
":  c #1A1C1D",
">  c #161719",
",  c #230606",
"<  c #250909",
"1  c #2B0B0B",
"2  c #330C0C",
"3  c #3B0D0D",
"4  c #251901",
"5  c #2C1D02",
"6  c #231701",
"7  c #3D1010",
"8  c #392602",
"9  c #382602",
"0  c #1C1E20",
"q  c #1F2022",
"w  c #222425",
"e  c #242729",
"r  c #26282A",
"t  c #2B2D2E",
"y  c #2B2E31",
"u  c #2E3031",
"i  c #323435",
"p  c #33373A",
"a  c #36393C",
"s  c #3B3D3E",
"d  c #440F0F",
"f  c #441212",
"g  c #4C1313",
"h  c #521515",
"j  c #5C1515",
"k  c #561818",
"l  c #5C1A1A",
"z  c #641717",
"x  c #681717",
"c  c #641C1C",
"v  c #6C1D1D",
"b  c #741A1A",
"n  c #7B1C1C",
"m  c #432D03",
"M  c #4B3203",
"N  c #5A3C04",
"B  c #6A2F2F",
"V  c #742121",
"C  c #7C2222",
"Z  c #792C2C",
"A  c #5F4004",
"S  c #6C4805",
"D  c #714C05",
"F  c #7A5105",
"G  c #3A3D41",
"H  c #3E4145",
"J  c #424344",
"K  c #414549",
"L  c #45494D",
"P  c #4C4C4C",
"I  c #4B4044",
"U  c #474C50",
"Y  c #494E52",
"T  c #4C5156",
"R  c #4F5358",
"E  c #535354",
"W  c #52565B",
"Q  c #54595E",
"!  c #5B5B5C",
"~  c #575B60",
"^  c #5A5F64",
"/  c #5B6065",
"(  c #636363",
")  c #676868",
"_  c #6D6D6D",
"`  c #737373",
"'  c #79797A",
"]  c #851E1E",
"[  c #8A1F1F",
"{  c #832525",
"}  c #8D2020",
"|  c #8D2828",
" . c #932121",
".. c #9B2323",
"X. c #922929",
"o. c #9C2B2B",
"O. c #A42525",
"+. c #AB2626",
"@. c #A62E2E",
"#. c #A92F2F",
"$. c #B32828",
"%. c #BB2A2A",
"&. c #AD3131",
"*. c #B43333",
"=. c #BC3535",
"-. c #C42C2C",
";. c #CB2D2D",
":. c #D22F2F",
">. c #C23737",
",. c #C63838",
"<. c #CE3A3A",
"1. c #CB3535",
"2. c #D63030",
"3. c #D93131",
"4. c #D63D3D",
"5. c #DC3E3E",
"6. c #E13737",
"7. c #E13E3E",
"8. c #EC3E3E",
"9. c #855806",
"0. c #8D5E06",
"q. c #936206",
"w. c #9F6B07",
"e. c #986507",
"r. c #A16B07",
"t. c #B17608",
"y. c #8B4043",
"u. c #A25F5F",
"i. c #E34040",
"p. c #ED4242",
"a. c #F44545",
"s. c #F84646",
"d. c #CD8A09",
"f. c #C88509",
"g. c #D68E09",
"h. c #DB9109",
"j. c #E2970A",
"k. c #E5990A",
"l. c #EC9D0A",
"z. c #F4A20B",
"x. c #F9A60B",
"c. c #FFAB0B",
"v. c #858585",
"b. c #8C8C8C",
"n. c #949494",
"m. c #9C9C9C",
"M. c #A4A4A4",
"N. c #ABABAB",
"B. c #B2B2B2",
"V. c #B4B4B4",
"C. c #BCBCBC",
"Z. c #F59393",
"A. c #EB8585",
"S. c #C3C3C3",
"D. c #C5C5C5",
"F. c #CCCCCC",
"G. c #D4D4D4",
"H. c #DCDCDC",
"J. c #D9DADA",
"K. c #EBD5D5",
"L. c #DFDFE0",
"P. c #E2E2E2",
"I. c #E3E3E3",
"U. c #E7E8E8",
"Y. c #EEEEEE",
"T. c #EBEBEB",
"R. c #F5F5F5",
"E. c #F3F3F3",
"W. c #F8F7F7",
"Q. c #FBFBFB",
"!. c #F9F9F9",
"~. c white",
"^. c #FEFEFE",
"/. c gray99",
"(. c #FFFFFF",
/* pixels */
"~.~.~.~.~.~.~.~.~.~.~.~.~.~.~.~.~.~.~.~.~.!._ - _ H.~.~.~.~.~.~.~.~.~.~.~.~.~.~.~.~.~.~.~.~.~.~.~.~.~.~.~.~.~.~.~.~.~.~.~.~.~.~.",
"~.~.~.~.~.~.~.~.~.~.~.~.~.~.~.~.~.~.~.~.~.R.s     u m.E.~.~.~.~.~.~.~.~.~.~.~.~.~.~.~.~.~.~.~.~.~.~.~.~.~.~.~.~.~.~.~.~.~.~.~.~.",
"~.~.~.~.~.~.~.~.~.~.~.~.~.~.~.~.~.~.~.~.~.~._   % .   P S.~.~.~.~.~.~.~.~.~.~.~.~.~.~.~.~.~.~.~.~.~.~.~.~.~.~.~.~.~.~.~.~.~.~.~.",
"~.~.~.~.~.~.~.~.~.~.~.~.~.~.~.~.~.~.~.~.~.~.N.  g ..3   > v.Y.~.~.~.~.~.~.~.~.~.~.~.~.~.~.~.~.~.~.~.~.~.~.~.~.~.~.~.~.~.~.~.~.~.",
"~.~.~.~.~.~.~.~.~.~.~.~.~.~.~.~.~.~.~.~.~.~.H.: , -.;.b @   P G.~.~.~.~.~.~.~.~.~.~.~.~.~.~.~.~.~.~.~.~.~.~.~.~.~.~.~.~.~.~.~.~.",
"~.~.~.~.~.~.~.~.~.~.~.~.~.~.~.~.~.~.~.~.~.~.!.P   O.3.2.O.3   e B.~.~.~.~.~.~.~.~.~.~.~.~.~.~.~.~.~.~.~.~.~.~.~.~.~.~.~.~.~.~.~.",
"~.~.~.~.~.~.~.~.~.~.~.~.~.~.~.~.~.~.~.~.~.~.~.v.  n 3.2.3.-.j   - n.!.~.~.~.~.~.~.~.~.~.~.~.~.~.~.~.~.~.~.~.~.~.~.~.~.~.~.~.~.~.",
"~.~.~.~.~.~.~.~.~.~.~.~.~.~.~.~.~.~.~.~.~.~.~.B.  h 2.2.2.3.:.n @ + v.!.~.~.~.~.~.~.~.~.~.~.~.~.~.~.~.~.~.~.~.~.~.~.~.~.~.~.~.~.",
"~.~.~.~.~.~.~.~.~.~.~.~.~.~.~.~.~.~.~.~.~.~.~.J.> 1 ;.2.2.2.2.2. .@ + v.!.~.~.~.~.~.~.~.~.~.~.~.~.~.~.~.~.~.~.~.~.~.~.~.~.~.~.~.",
"~.~.~.~.~.~.~.~.~.~.~.~.~.~.~.~.~.~.~.~.~.~.~.Y.i # %.3.:.:.2.2.3...@ + n.~.~.~.~.~.~.~.~.~.~.~.~.~.~.~.~.~.~.~.~.~.~.~.~.~.~.~.",
"~.~.~.~.~.~.~.~.~.~.~.~.~.~.~.~.~.~.~.~.~.~.~.!.P . +.3.2.2.2.2.2.3.o.@ - V.~.~.~.~.~.~.~.~.~.~.~.~.~.~.~.~.~.~.~.~.~.~.~.~.~.~.",
"~.~.~.~.~.~.~.~.~.~.~.~.~.~.~.~.~.~.~.~.~.~.~.~.(   ..3.2.2.2.2.2.2.7.X.  t H.~.~.~.~.~.~.~.~.~.~.~.~.~.~.~.~.~.~.~.~.~.~.~.~.~.",
"~.~.~.~.~.~.~.~.~.~.~.~.~.~.~.~.~.~.~.~.~.~.~.~._    .3.2.2.2.2.2.2.6.p.c   ) !.~.~.~.~.~.~.~.~.~.~.~.~.~.~.~.~.~.~.~.~.~.~.~.~.",
"~.~.~.~.~.~.~.~.~.~.~.~.~.~.~.~.~.~.~.~.~.~.~.~.`   [ 3.2.2.2.2.2.2.3.s.4.1 O B.~.~.~.~.~.~.~.~.~.~.~.~.~.~.~.~.~.~.~.~.~.~.~.~.",
"~.~.~.~.~.~.~.~.~.~.~.~.~.~.~.~.~.~.~.~.~.~.~.~.b.   .3.2.2.2.2.2.2.3.a.s.o.  L E.~.~.~.~.~.~.~.~.~.~.~.~.~.~.~.~.~.~.~.~.~.~.~.",
"~.~.~.~.~.~.~.~.~.~.~.~.~.~.~.~.~.~.~.~.~.~.~.~.U.u.;.2.2.2.2.2.2.2.3.a.s.i.7 + B.~.~.U.b.V.~.~.~.~.~.~.~.~.~.~.~.~.~.~.~.~.~.~.",
"~.~.~.~.~.~.~.~.~.~.~.~.~.~.~.~.~.~.~.~.~.~.~.~.~.A.:.2.2.2.2.2.2.2.3.p.s.s.o.  ! /.~.b.  > N.~.~.~.~.~.~.~.~.~.~.~.~.~.~.~.~.~.",
"~.~.~.~.~.~.~.~.~.~.~.~.~.~.~.~.~.~.~.~.~.~.~.~.M.B ;.2.2.2.2.2.2.2.3.p.s.s.4.< : J.~.b.    : S.~.~.~.~.~.~.~.~.~.~.~.~.~.~.~.~.",
"~.~.~.~.~.~.~.~.~.~.~.~.~.~.~.~.~.~.~.~.~.~.~.R.s . $.3.2.2.2.2.2.2.2.8.s.s.s.c   M.~.M.  #   H T.~.~.~.~.~.~.~.~.~.~.~.~.~.~.~.",
"~.~.~.~.~.~.~.~.~.~.~.~.~.~.~.~.~.~.~.~.~.~.~.P.w , -.2.2.2.2.2.2.2.3.p.s.s.s.o.  _ ~.n.  v h   v.~.~.~.~.~.~.~.~.~.~.~.~.~.~.~.",
"~.~.~.~.~.~.~.~.~.~.~.~.~.~.~.~.~.~.~.~.~.~.~.S.O 3 :.2.2.2.2.2.2.2.3.a.a.a.s.,.. J !.'   o.>.@ e L.~.~.~.~.~.~.~.~.~.~.~.~.~.~.",
"~.~.~.~.~.~.~.~.~.~.~.~.~.H.m.J.~.~.~.~.~.~.~.n.  x 3.2.2.2.2.2.2.2.3.a.a.a.s.i.1 - v.i . =.s.l   n.~.~.~.~.~.~.~.~.~.~.~.~.~.~.",
"~.~.~.~.~.~.~.~.~.~.~.~.~.(   ( ~.~.~.~.~.~.~.!    .3.2.2.2.2.2.2.2.3.a.a.a.a.a.{       k p.s.*.  P R.~.~.~.~.~.~.~.~.~.~.~.~.~.",
"~.~.~.~.~.~.~.~.~.~.~.~.P.e   i T.~.~.~.~.~.P.w % %.3.2.2.2.2.2.2.2.6.a.a.a.a.s.p.#.V X.7.s.s.5.1 : H.~.~.~.~.~.~.~.~.~.~.~.~.~.",
"~.~.~.~.~.~.~.~.~.~.~.~.V.O   O M.~.~.~.~.~.b.  h 2.2.2.2.2.2.2.2.2.7.s.s.s.a.a.s.s.s.s.s.s.a.a.h + C.~.~.~.~.~.~.~.~.~.~.~.~.~.",
"~.~.~.~.~.~.~.~.~.~.~.~.'   3   w N.E.!.Y.m.> . O.3.3.3.2.:.:.:.2.3.8.s.s.s.a.s.a.a.a.a.s.s.a.s.V   m.~.~.~.~.~.~.~.~.~.~.~.~.~.",
"~.~.~.~.~.~.~.~.~.~.~.E.s . O.x   O s E p + . b ;.+.] z g d d g j n *.5.s.s.s.s.a.s.a.a.s.a.a.s.|   b.~.~.~.~.~.~.~.~.~.~.~.~.~.",
"~.~.~.~.~.~.~.~.~.~.~.J.> 1 ;.:.] 2 .   @ 3 b b 3 .         +         1 c *.p.s.a.s.a.a.a.a.a.s.X.  v.~.~.~.~.~.~.~.~.~.~.~.~.~.",
"~.~.~.~.~.~.~.~.~.~.~.M.  j 2.2.3.;.$.O.O.b <     - r s L Y Y L H i 0 +   . h =.a.s.a.a.a.a.a.s.X.  v.~.~.~.~.~.~.~.~.~.~.~.~.~.",
"~.~.~.~.~.~.~.~.~.~.~._   ] 3.2.2.2.3.$.d     0 G R ^ / / / / / / / ^ T i =   @ { p.s.a.a.a.a.s.{   n.~.~.~.~.~.~.~.~.~.~.~.~.~.",
"~.~.~.~.~.~.~.~.~.~.E.s . +.3.2.2.3.O.<   - a T ^ ^ ^ ^ ^ ^ ^ ^ ^ ^ ^ / / R y +   l 5.s.s.s.s.s.c   N.~.~.~.~.~.~.~.~.~.~.~.~.~.",
"~.~.~.~.~.~.~.~.~.~.J.; 1 -.2.2.3.+.,   q L W ^ ^ ^ ^ ^ ^ ^ ^ ^ ^ ^ ^ ^ ^ / ^ K -   h i.s.s.s.p.f = F.~.~.~.~.~.~.~.~.~.~.~.~.~.",
"~.~.~.~.~.~.~.~.~.~.B.  g 2.2.2.-.3   w Y R ^ ^ ^ ^ ^ ^ ^ ^ ^ ^ ^ ^ ^ ^ ^ ^ ^ / Y >   v a.s.s.4.% r U.~.~.~.~.~.~.~.~.~.~.~.~.~.",
"~.~.~.~.~.~.~.~.~.~.v.  n 3.2.2.x   ; U T ~ ^ ^ ^ ^ ^ ^ ^ ^ ^ ^ ^ ^ ^ ^ ^ ^ ^ ^ / T = . @.s.s.&.  E !.~.V._ F.~.~.~.~.~.~.~.~.~.",
"~.~.~.~.~.~.~.~.~.!.E   ..3.3.$.@ + a a Y / ^ ^ ^ ^ ^ ^ ^ ^ ^ ^ ^ ^ ^ ^ ^ ^ ^ / R K p   7 i.s.V   n.~.F.q   _ ~.~.~.~.~.~.~.~.~.",
"~.~.~.~.~.~.~.~.~.Y.i @ %.3.3.x   w :   ; W / ^ ^ ^ ^ ^ ^ ^ ^ ^ ^ ^ ^ ^ ^ ^ / T >   w :   @.i.2 - G.P.s     ` ~.~.~.~.~.~.~.~.~.",
"~.~.~.~.~.~.~.~.~.J.; 1 ;.3.;.2   p O     0 W / ^ ^ ^ ^ ^ ^ ^ ^ ^ ^ ^ ^ ^ / R ;     > p   l =.. J J.P   .   b.~.~.~.~.~.~.~.~.~.",
"~.~.~.~.~.~.~.~.~.C.+ d :.3.$.@ - H + & 8   : T / ^ ^ ^ ^ ^ ^ ^ ^ ^ ^ ^ / Y >   8 & * L O 1 &.. w s   g l   M.~.~.~.~.~.~.~.~.~.",
"~.~.~.~.~.~.~.~.~.M.  x 3.3...  0 K + 8 d.m   - K ^ / ^ ^ ^ ^ ^ ^ ^ / ^ H *   N d.5 O T > @ =.v .   g 4.c   V.~.~.~.~.~.~.~.~.~.",
"~.~.~.~.~.~.~.~.~.b.  n 3.3. .  w L O 9 z.k.A     e L ~ / / ^ / ^ Q L w   . S l.k.4 = W q . =.p.*.&.i.a.g O S.~.~.~.~.~.~.~.~.~.",
"~.~.~.~.~.~.~.~.~.`   ] 3.3. .  w L * 6 j.c.z.q.4     > e K ^ H w >     5 r.x.c.g.$ > ~ q . =.s.s.s.s.p.7 - J.~.~.~.~.~.~.~.~.~.",
"~.~.~.~.~.~.~.~.~.)    .3.3.O.. ; Y : X f.c.c.c.h.9.8 .   = L O   X m 0.j.c.c.c.t.  e ^ : . ,.s.a.a.s.i.1 q P.~.~.~.~.~.~.~.~.~.",
"~.~.~.~.~.~.~.~.~.)    .3.3.%.# O L y   D c.c.c.c.z.q.$   ; Y -   & w.x.c.c.c.x.N   G Q = , 4.s.a.a.s.4.# i Y.~.~.~.~.~.~.~.~.~.",
"~.~.~.~.~.~.~.~.~.`   ] 3.2.;.3   G K O X 9.d.d.e.m .   w T / Y q   . M w.d.d.F . - W L   f p.s.a.a.s.<.@ H R.~.~.~.~.~.~.~.~.~.",
"~.~.~.~.~.~.~.~.~.v.  b 3.2.3.b   y T i +   $ $     ; H ^ / ^ / ~ G >     $ $   O H / u   C s.s.s.s.s.*.  E ~.~.~.~.~.~.~.~.~.~.",
"~.~.~.~.~.~.~.~.~.m.  j 2.2.2.-.v I T T H e > : t K Q / ^ ^ ^ ^ ^ / Q J t : > r L / W = @ >.s.s.s.s.s.o.  ` ~.~.~.~.~.~.~.~.~.~.",
"~.~.~.~.~.~.~.~.~.C.+ 3 :.2.2.2.3.y.U T R ^ ~ ^ / / ^ ^ ^ ^ ^ ^ ^ ^ ^ / / ^ ~ ^ / / i   k p.s.a.s.s.s.V   n.~.~.~.~.~.~.~.~.~.~.",
"~.~.~.~.~.~.~.~.~.P.w # %.3.2.2.3.C - G T W ^ ^ ^ ^ ^ ^ ^ ^ ^ ^ ^ ^ ^ ^ ^ ^ ^ ^ / Y O . *.s.s.a.s.s.p.f O S.~.~.~.~.~.~.~.~.~.~.",
"~.~.~.~.~.~.~.~.~.!.P   } 3.2.2.3.]   - K T Q ^ ^ ^ ^ ^ ^ ^ ^ ^ ^ ^ ^ ^ ^ ^ ^ / Q 0   v a.s.s.a.a.s.<.@ t T.~.~.~.~.~.~.~.~.~.~.",
"~.~.~.~.~.~.~.~.~.~.n.  g :.2.2.2.;.g   : L R ~ ^ ^ ^ / ^ ^ ^ ^ ^ / ^ ^ ^ ^ ^ ~ r   7 4.s.s.s.s.a.s.|   _ ~.~.~.~.~.~.~.~.~.~.~.",
"~.~.~.~.~.~.~.~.~.~.J.: @ $.3.2.2.3.%.7   : U R ~ ^ Q R ^ ^ ^ ^ ^ T Q ^ ^ ^ ^ u   < >.s.s.s.s.s.s.i.7 + C.~.~.~.~.~.~.~.~.~.~.~.",
"~.~.~.~.~.~.~.~.~.~.~._   z 2.2.2.2.3.1.2   s T R ^ t = T / ^ / Y O i / ^ / T O # *.s.s.s.s.s.s.s.o.  J E.~.~.~.~.~.~.~.~.~.~.~.",
"~.~.~.~.~.~.~.~.~.~.~.F.> @ +.3.2.2.2.8.v   p T T ^ q   L / ^ / H   r / ^ / Y   g a.a.s.s.s.a.s.7.3 + N.~.~.~.~.~.~.~.~.~.~.~.~.",
"~.~.~.~.~.~.~.~.~.~.~.~.'   g ;.2.2.2.6.v   p T T ^ q   L / ^ / H   r / ^ / Y   g a.s.s.s.a.s.s.C   E R.~.~.~.~.~.~.~.~.~.~.~.~.",
"~.~.~.~.~.~.~.~.~.~.~.~.P.i   b 2.2.2.3.c   p T T ^ q   L / ^ / H   r / ^ / Y   g a.a.a.s.a.s.&.@ : F.~.~.~.~.~.~.~.~.~.~.~.~.~.",
"~.~.~.~.~.~.~.~.~.~.~.~.~.C.> .  .3.2.3.j   p T R ^ q   L / / / H   r / / / Y   g p.a.a.a.s.>.< + n.~.~.~.~.~.~.~.~.~.~.~.~.~.~.",
"~.~.~.~.~.~.~.~.~.~.~.~.~.~.m.O @  .3.3.j   y L L R :   H Q W Q G   w W W Q K   g a.s.s.s.>.1   ` !.~.~.~.~.~.~.~.~.~.~.~.~.~.~.",
"~.~.~.~.~.~.~.~.~.~.~.~.~.~.~.v.+ @ ] 2.]     O O O     O = * = O   + * * = O   V s.s.s.*.1   ) E.~.~.~.~.~.~.~.~.~.~.~.~.~.~.~.",
"~.~.~.~.~.~.~.~.~.~.~.~.~.~.~.!.n.=   z $.b 2 1 1 1 1 1 1 1 < < < < < < < < < l 4.s.s.o.@   _ E.~.~.~.~.~.~.~.~.~.~.~.~.~.~.~.~.",
"~.~.~.~.~.~.~.~.~.~.~.~.~.~.~.~.~.N.e   1 } 1.i.i.i.7.7.7.7.5.5.5.5.5.5.5.5.7.a.a.a.s.Z : b.R.~.~.~.~.~.~.~.~.~.~.~.~.~.~.~.~.~.",
"~.~.~.~.~.~.~.~.~.~.~.~.~.~.~.~.~.~.J.! +   3 o.4.a.s.s.s.s.s.s.s.s.s.s.s.s.i.@.k Z Z.K.J.~.~.~.~.~.~.~.~.~.~.~.~.~.~.~.~.~.~.~.",
"~.~.~.~.~.~.~.~.~.~.~.~.~.~.~.~.~.~.~.R.N.J +   , l | *.<.4.7.i.i.5.4.=.o.c 1     ! W.~.~.~.~.~.~.~.~.~.~.~.~.~.~.~.~.~.~.~.~.~.",
"~.~.~.~.~.~.~.~.~.~.~.~.~.~.~.~.~.~.~.~.~.E.B.( w +     @ % 1 1 1 , # .     ; E M.T.~.~.~.~.~.~.~.~.~.~.~.~.~.~.~.~.~.~.~.~.~.~.",
"~.~.~.~.~.~.~.~.~.~.~.~.~.~.~.~.~.~.~.~.~.~.~.~.J.M._ J w - +     O q i ( n.F.R.~.~.~.~.~.~.~.~.~.~.~.~.~.~.~.~.~.~.~.~.~.~.~.~."
};
