/* XPM */
static char *b50582fb22814ffce0d04c0a45f29a4cVNfbcsGipP9a5RBo[] = {
/* columns rows colors chars-per-pixel */
"64 64 3 1 ",
"  c white",
". c black",
"e c orange",
/* pixels */
"                      ...                                       ",
"                      ....                                      ",
"                      ......                                    ",
"                       ..e...                                   ",
"                       ..eee...                                 ",
"                       ..eeee...                                ",
"                       ..eeeee...                               ",
"                        ..eeeeee..                              ",
"                        ..eeeeeee..                             ",
"                        ..eeeeeeee..                            ",
"                        ..eeeeeeeee..                           ",
"                        ..eeeeeeeeee..                          ",
"                        ..eeeeeeeeee...                         ",
"                        ..eeeeeeeeeee..                         ",
"                        ..eeeeeeeeeeee..                        ",
"                        ..eeeeeeeeeeee..                        ",
"                        ..eeeeeeeeeeeee..   ..                  ",
"                        ..eeeeeeeeeeeee..   ...                 ",
"                        ..eeeeeeeeeeeee..   ....                ",
"                        ..eeeeeeeeeeeeee..  ....                ",
"                        ..eeeeeeeeeeeeee.. ..ee..               ",
"                        ..eeeeeeeeeeeeee.. ..ee..               ",
"             ...       ..eeeeeeeeeeeeeeee....eee..              ",
"             ...       ..eeeeeeeeeeeeeeeee.eeeee..              ",
"             ...       ..eeeeeeeeeeeeeeeeeeeeeee..              ",
"            .....     ..eeeeeeeeeeeeeeeeeeeeeeee..              ",
"            ..e........eeee......eeeeeeeeeeeeeeee.              ",
"            ..eee.....ee.............eeeeeeeeeeee..             ",
"            ..eeeeeeee.....       .....eeeeeeeeee.              ",
"           ..eeeeeee....             ...eeeeeeeee.              ",
"           ..eeeeee...                ....eeeeee..              ",
"           ..eeeee...                   ...eeeee..              ",
"           ..eeee...                     ...eeee..              ",
"          ..eeee...                       ..eeee..   .          ",
"          ..eeee..                         ..ee..   ...         ",
"          ..eee......                   .....ee..  ....         ",
"          ..eee.. ....                 .... ..e.. ....          ",
"          ..eee.. .....               ..... ..e.......          ",
"          ..eee.. ..e...             ...e.. ..e....e..          ",
"          .eeee.. ..ee....         ....ee.. ..eeeeee..          ",
"         ..eeee.. ..eeee.....   .....eeee.. ..eeeeee..          ",
"         ..eeee.. ..eeeeee.... ....eeeeee.. ..eeeeee..          ",
"         ..eeee..  ..eeeeee... ...eeeeee..  ..eeeeee..          ",
"         ..eeee..  ..eeee....   ....eee...  ..eeeeee..          ",
"         ..eeeee.   .......       .......  ...eeeeee..          ",
"          ..eeee..   ....           ....   ..eeeeeee..          ",
"          ..eeeee.                         ..eeeeee..           ",
"          ..eeeee..                       ..eeeeeee..           ",
"          ..eeeeee..                     ...eeeeeee..           ",
"           ..eeeee...                   ...eeeeeeee..           ",
"           ..eeeeee...                 ...eeeeeeee..            ",
"           ...eeeeee..    ..     .     ..eeeeeeeee..            ",
"            ..eeeeee..    ..     ..    ..eeeeeeee..             ",
"            ...eeeee..    ..     ..    ..eeeeeee...             ",
"             ..eeeee..    ..     ..    ..eeeeeee..              ",
"              ..eeee..    ..     ..    ..eeeeee..               ",
"               ..eee..    ..     ..    ..eeeee...               ",
"                ..eee....................eeee...                ",
"                 ...ee..................eeee...                 ",
"                  ...eeeeeeeeeeeeeeeeeeeeee..                   ",
"                   ....eeeeeeeeeeeeeeeee..                      ",
"                     .....eeeeeeeeeee.....                      ",
"                       .................                        ",
"                          ...........                           "
};
