/* XPM */
static char *f072169277a343e4ccf3d3b8621f864eH56A8TMunqOqkt8m[] = {
/* columns rows colors chars-per-pixel */
"64 64 2 1 ",
"  c white",
". c black",
/* pixels */
"           ..........................................           ",
"          ...........................................           ",
"          ............................................          ",
"          ............................................          ",
"          ............................................          ",
"          ............................................          ",
"          ............................................          ",
"          ...............  ...........................          ",
"          ..............    ..........................          ",
"          ..............     .........................          ",
"          ...............     ........................          ",
"                               .......................          ",
"                                ......................          ",
"                                ......................          ",
"                               .......................          ",
"          ...............     ........................          ",
"          ..............     .........................          ",
"          ..............    ..........................          ",
"          ...............  ...........................          ",
"          ............................................          ",
"          .............................    ...........          ",
"          ............................      ..........          ",
"          ...........................        .........          ",
"          ...........................        .........          ",
"          ...........................        .........          ",
"          ..................    .....       ..........          ",
"          ................         ...     ...........          ",
"          ..............             .................          ",
"          ............                 ...............          ",
"          ...........       .....       ..............          ",
"          ...........     .......        .............          ",
"          ............  ........         .............          ",
"          ......................         .............          ",
"          .....................          .............          ",
"          ....................            ............          ",
"          ....................       ..   ............          ",
"          ...................        ..       ........          ",
"          ...................       ....         .....          ",
"          ..................       .....          ....          ",
"          ..................       .........     .....          ",
"          ..................       ...................          ",
"          ...................       ..................          ",
"          ...............   ..       .................          ",
"          ..............     ..       ................          ",
"          .....              ....      ...............          ",
"          ....              ......      ..............          ",
"          ....             ........    ...............          ",
"          .....           .........    ...............          ",
"          ........................     ...............          ",
"          ........................    ................          ",
"          .......................     ................          ",
"          .......................    .................          ",
"          ......................     .................          ",
"          ......................    ..................          ",
"          ......................    ..................          ",
"          .....................     ..................          ",
"          .....................    ...................          ",
"          ......................  ....................          ",
"          ............................................          ",
"          ............................................          ",
"          ............................................          ",
"          ............................................          ",
"           ...........................................          ",
"           ..........................................           "
};
