/* XPM */
static char *_2af2103db394ee3db480e65d0e9ad9f5yGDNySFXCglRhFT[] = {
/* columns rows colors chars-per-pixel */
"64 64 2 1 ",
"  c white",
". c black",
/* pixels */
"                                                                ",
"                                                                ",
"                                                                ",
"                                                                ",
"    ........................................................    ",
"    ........................................................    ",
"    ..                         ..                         ..    ",
"    ..                         ..                         ..    ",
"    ..                         ..                         ..    ",
"    ..                         ..                         ..    ",
"    ..                         ..                         ..    ",
"    ..                         ..                         ..    ",
"    ..                         ..                         ..    ",
"    ..                         ..                         ..    ",
"    ..                         ..                         ..    ",
"    ..                         ..                         ..    ",
"    ..                         ..                         ..    ",
"    ........................................................    ",
"    ........................................................    ",
"    ..            ..                        ..            ..    ",
"    ..            ..                         .            ..    ",
"    ..            ..                        ..            ..    ",
"    ..            ..                        ..            ..    ",
"    ..            ..                        ..            ..    ",
"    ..            ..                        ..            ..    ",
"    ..            ..                        ..            ..    ",
"    ..            ..                        ..            ..    ",
"    ..            ..                        ..            ..    ",
"    ..            ..                        ..            ..    ",
"    ..            ..                         .            ..    ",
"    ..            ..                        ..            ..    ",
"    ........................................................    ",
"    ........................................................    ",
"    ..                         ..                         ..    ",
"    ..                         ..                         ..    ",
"    ..                         ..                         ..    ",
"    ..                         ..                         ..    ",
"    ..                         ..                         ..    ",
"    ..                         ..                         ..    ",
"    ..                         ..                         ..    ",
"    ..                         ..                         ..    ",
"    ..                         ..                         ..    ",
"    ..                         ..                         ..    ",
"    ..                         ..                         ..    ",
"    ..                         ..                         ..    ",
"    ........................................................    ",
"    ........................................................    ",
"    ..            ..                        ..            ..    ",
"    ..            ..                         .            ..    ",
"    ..            ..                        ..            ..    ",
"    ..            ..                        ..            ..    ",
"    ..            ..                        ..            ..    ",
"    ..            ..                        ..            ..    ",
"    ..            ..                        ..            ..    ",
"    ..            ..                        ..            ..    ",
"    ..            ..                        ..            ..    ",
"    ..            ..                        ..            ..    ",
"    ..            ..                        ..            ..    ",
"    ........................................................    ",
"    ........................................................    ",
"                                                                ",
"                                                                ",
"                                                                ",
"                                                                "
};
